<svg width="155" height="110" viewBox="0 0 155 110" fill="none" xmlns="http://www.w3.org/2000/svg">
<g id="Mask Group">
<mask id="mask0_1_630" style="mask-type:alpha" maskUnits="userSpaceOnUse" x="0" y="0" width="155" height="110">
<rect id="Rectangle 2.1" width="155" height="110" rx="15" fill="url(#paint0_linear_1_630)"/>
</mask>
<g mask="url(#mask0_1_630)">
<g id="Subtract" style="mix-blend-mode:screen" opacity="0.3">
<path fill-rule="evenodd" clip-rule="evenodd" d="M158.725 86.9016H137.26C135.643 96.4287 127.35 103.683 117.363 103.683C107.375 103.683 99.082 96.4287 97.465 86.9016H76C77.7303 108.23 95.5881 125 117.363 125C139.137 125 156.995 108.23 158.725 86.9016ZM158.686 79.6448H137.178C135.379 70.3421 127.191 63.3169 117.363 63.3169C107.534 63.3169 99.3466 70.3421 97.5473 79.6448H76.0393C77.9841 58.5324 95.7427 42 117.363 42C138.983 42 156.741 58.5324 158.686 79.6448ZM104.546 83.5C104.546 76.4214 110.284 70.6831 117.363 70.6831C124.441 70.6831 130.18 76.4214 130.18 83.5C130.18 90.5786 124.441 96.3169 117.363 96.3169C110.284 96.3169 104.546 90.5786 104.546 83.5Z" fill="#48D0B0"/>
</g>
</g>
</g>
<defs>
<linearGradient id="paint0_linear_1_630" x1="-7" y1="110" x2="7.37018" y2="-26.1669" gradientUnits="userSpaceOnUse">
<stop stop-color="#46A487"/>
<stop offset="1" stop-color="#46D7AB"/>
</linearGradient>
</defs>
</svg>
